<svg width="48" height="48" viewBox="0 0 48 48" fill="none" xmlns="http://www.w3.org/2000/svg">
<circle cx="24" cy="24" r="24" fill="#564A4A"/>
<path d="M5.66602 33.044H12.29V35.006H5.66602V33.044ZM16.415 32.18C15.491 32.18 14.723 31.976 14.111 31.568C13.511 31.148 13.025 30.482 12.653 29.57L14.651 28.688C14.843 29.168 15.065 29.54 15.317 29.804C15.581 30.068 15.869 30.2 16.181 30.2C16.637 30.2 16.865 30.02 16.865 29.66C16.865 29.396 16.775 29.162 16.595 28.958C16.415 28.742 16.025 28.388 15.425 27.896L14.669 27.266C14.045 26.738 13.589 26.258 13.301 25.826C13.025 25.394 12.887 24.878 12.887 24.278C12.887 23.726 13.031 23.234 13.319 22.802C13.619 22.37 14.015 22.034 14.507 21.794C14.999 21.542 15.527 21.416 16.091 21.416C16.943 21.416 17.651 21.65 18.215 22.118C18.791 22.574 19.199 23.234 19.439 24.098L17.549 24.962C17.429 24.578 17.243 24.236 16.991 23.936C16.739 23.624 16.463 23.468 16.163 23.468C15.971 23.468 15.815 23.522 15.695 23.63C15.587 23.738 15.533 23.882 15.533 24.062C15.533 24.278 15.647 24.512 15.875 24.764C16.115 25.016 16.487 25.346 16.991 25.754L17.729 26.402C18.329 26.906 18.791 27.38 19.115 27.824C19.439 28.256 19.601 28.766 19.601 29.354C19.601 29.942 19.451 30.452 19.151 30.884C18.863 31.304 18.473 31.628 17.981 31.856C17.501 32.072 16.979 32.18 16.415 32.18ZM20.8579 17.42H23.7739V22.514C24.5059 21.782 25.3579 21.416 26.3299 21.416C26.9299 21.416 27.3979 21.644 27.7339 22.1C28.0699 22.544 28.2379 23.126 28.2379 23.846V32H25.3219V24.26C25.3219 23.996 25.2739 23.804 25.1779 23.684C25.0939 23.552 24.9439 23.486 24.7279 23.486C24.4759 23.486 24.1579 23.612 23.7739 23.864V32H20.8579V17.42ZM30.0341 21.596H32.9681V23.324C33.3281 22.688 33.6761 22.22 34.0121 21.92C34.3481 21.62 34.7441 21.47 35.2001 21.47C35.3681 21.47 35.5181 21.488 35.6501 21.524V24.44C35.2901 24.296 34.9721 24.224 34.6961 24.224C34.0601 24.224 33.4841 24.56 32.9681 25.232V32H30.0341V21.596ZM40.1107 32.108C39.3427 32.108 38.7487 32 38.3287 31.784C37.9087 31.556 37.6147 31.232 37.4467 30.812C37.2787 30.392 37.1947 29.846 37.1947 29.174V23.522H36.1867V21.596H37.1947V18.428H40.1647V21.596H41.6407V23.522H40.1647V28.886C40.1647 29.174 40.2427 29.39 40.3987 29.534C40.5667 29.666 40.7947 29.732 41.0827 29.732C41.3227 29.732 41.5867 29.708 41.8747 29.66V31.964C41.2987 32.06 40.7107 32.108 40.1107 32.108Z" fill="#F55C47"/>
</svg>
